# xmcd
#
# Track frame offsets: 
#        150
#        9315
#        20144
#        39921
#        60443
#        73975
#        91447
#        105814
#        123314
#        152183
#        166231
#        183220
#        206180
#        221746
#        240948
#        268116
#
# Disc length: 3753 seconds
#
# Revision: 0
# Processed by: cddbd v1.5.2PL0 Copyright (c) Steve Scherf et al.
# Submitted via: ExactAudioCopy v0.99pb5
#
DISCID=d40ea710
DTITLE=David Grisman Bluegrass Experience - Muddy Roads
DYEAR=2013
DGENRE=Bluegrass
TTITLE0=Muddy Roads (old-time)
TTITLE1=The Train that Carried My Girl from Town
TTITLE2=The Lone Pilgrim
TTITLE3=Walkin' Boss
TTITLE4=Handsome Molly
TTITLE5=Willie Moore
TTITLE6=The Cuckoo Bird
TTITLE7=I'll Rise When the Rooster Crows
TTITLE8=Omie Wise
TTITLE9=The Roving Gambler
TTITLE10=Crawdad
TTITLE11=Trouble in Mind
TTITLE12=Blue Ridge Mountain Blues
TTITLE13=Shady Grove
TTITLE14=Your Long Journey
TTITLE15=Muddy Roads
EXTD=
EXTT0=
EXTT1=
EXTT2=
EXTT3=
EXTT4=
EXTT5=
EXTT6=
EXTT7=
EXTT8=
EXTT9=
EXTT10=
EXTT11=
EXTT12=
EXTT13=
EXTT14=
EXTT15=
PLAYORDER=
